<svg fill="none" viewBox="0 0 1440 778" xmlns="http://www.w3.org/2000/svg" xmlns:xlink="http://www.w3.org/1999/xlink"><linearGradient id="a"><stop offset="0"/><stop offset=".167" stop-color="#2c2c2c" stop-opacity=".925"/><stop offset=".336" stop-color="#515151" stop-opacity=".849"/><stop offset=".506" stop-color="#6e6e6e" stop-opacity=".772"/><stop offset=".674" stop-color="#828282" stop-opacity=".697"/><stop offset=".839" stop-color="#8f8f8f" stop-opacity=".622"/><stop offset="1" stop-color="#939393" stop-opacity=".55"/></linearGradient><linearGradient id="b" gradientUnits="userSpaceOnUse" x1="-.001" x2="1440.2" xlink:href="#a" y1="774.955" y2="774.955"/><linearGradient id="c" gradientUnits="userSpaceOnUse" x1=".006" x2="1440.2" xlink:href="#a" y1="761.16" y2="761.16"/><linearGradient id="d" gradientUnits="userSpaceOnUse" x1=".019" x2="1440.2" xlink:href="#a" y1="739.161" y2="739.161"/><linearGradient id="e" gradientUnits="userSpaceOnUse" x1=".04" x2="1440.2" xlink:href="#a" y1="712.938" y2="712.938"/><linearGradient id="f" gradientUnits="userSpaceOnUse" x1=".069" x2="1440.19" xlink:href="#a" y1="685.572" y2="685.572"/><linearGradient id="g" gradientUnits="userSpaceOnUse" x1=".104" x2="1440.19" xlink:href="#a" y1="661.596" y2="661.596"/><linearGradient id="h" gradientUnits="userSpaceOnUse" x1=".137" x2="1440.19" xlink:href="#a" y1="644.307" y2="644.307"/><linearGradient id="i" gradientUnits="userSpaceOnUse" x1=".146" x2="1440.19" xlink:href="#a" y1="633.233" y2="633.233"/><linearGradient id="j" gradientUnits="userSpaceOnUse" x1=".141" x2="1440.19" xlink:href="#a" y1="623.195" y2="623.195"/><linearGradient id="k" gradientUnits="userSpaceOnUse" x1=".143" x2="1440.19" xlink:href="#a" y1="612.3" y2="612.3"/><linearGradient id="l" gradientUnits="userSpaceOnUse" x1=".146" x2="1440.19" xlink:href="#a" y1="601.062" y2="601.062"/><linearGradient id="m" gradientUnits="userSpaceOnUse" x1=".148" x2="1440.19" xlink:href="#a" y1="590.142" y2="590.142"/><linearGradient id="n" gradientUnits="userSpaceOnUse" x1=".144" x2="1440.19" xlink:href="#a" y1="580.619" y2="580.619"/><linearGradient id="o" gradientUnits="userSpaceOnUse" x1=".137" x2="1440.19" xlink:href="#a" y1="571.65" y2="571.65"/><linearGradient id="p" gradientUnits="userSpaceOnUse" x1=".153" x2="1440.19" xlink:href="#a" y1="554.709" y2="554.709"/><linearGradient id="q" gradientUnits="userSpaceOnUse" x1=".149" x2="1440.18" xlink:href="#a" y1="530.051" y2="530.051"/><linearGradient id="r" gradientUnits="userSpaceOnUse" x1=".134" x2="1440.17" xlink:href="#a" y1="506.633" y2="506.633"/><linearGradient id="s" gradientUnits="userSpaceOnUse" x1=".12" x2="1440.17" xlink:href="#a" y1="483.893" y2="483.893"/><linearGradient id="t" gradientUnits="userSpaceOnUse" x1=".104" x2="1440.16" xlink:href="#a" y1="464.141" y2="464.141"/><linearGradient id="u" gradientUnits="userSpaceOnUse" x1=".087" x2="1440.17" xlink:href="#a" y1="450.303" y2="450.303"/><linearGradient id="v" gradientUnits="userSpaceOnUse" x1=".093" x2="1440.18" xlink:href="#a" y1="440.58" y2="440.58"/><linearGradient id="w" gradientUnits="userSpaceOnUse" x1=".106" x2="1440.18" xlink:href="#a" y1="426.263" y2="426.263"/><linearGradient id="x" gradientUnits="userSpaceOnUse" x1=".115" x2="1440.17" xlink:href="#a" y1="407.832" y2="407.832"/><linearGradient id="y" gradientUnits="userSpaceOnUse" x1=".123" x2="1440.16" xlink:href="#a" y1="385.587" y2="385.587"/><linearGradient id="z" gradientUnits="userSpaceOnUse" x1=".132" x2="1440.16" xlink:href="#a" y1="367.059" y2="367.059"/><linearGradient id="A" gradientUnits="userSpaceOnUse" x1=".146" x2="1440.16" xlink:href="#a" y1="352.811" y2="352.811"/><linearGradient id="B" gradientUnits="userSpaceOnUse" x1=".156" x2="1440.16" xlink:href="#a" y1="344.538" y2="344.538"/><linearGradient id="C" gradientUnits="userSpaceOnUse" x1=".153" x2="1440.17" xlink:href="#a" y1="336.182" y2="336.182"/><linearGradient id="D" gradientUnits="userSpaceOnUse" x1=".155" x2="1440.16" xlink:href="#a" y1="327.324" y2="327.324"/><linearGradient id="E" gradientUnits="userSpaceOnUse" x1=".158" x2="1440.16" xlink:href="#a" y1="316.003" y2="316.003"/><linearGradient id="F" gradientUnits="userSpaceOnUse" x1=".153" x2="1440.17" xlink:href="#a" y1="299.547" y2="299.547"/><linearGradient id="G" gradientUnits="userSpaceOnUse" x1=".147" x2="1440.17" xlink:href="#a" y1="282.798" y2="282.798"/><linearGradient id="H" gradientUnits="userSpaceOnUse" x1=".148" x2="1440.17" xlink:href="#a" y1="270.626" y2="270.626"/><linearGradient id="I" gradientUnits="userSpaceOnUse" x1=".149" x2="1440.16" xlink:href="#a" y1="262.538" y2="262.538"/><linearGradient id="J" gradientUnits="userSpaceOnUse" x1=".149" x2="1440.16" xlink:href="#a" y1="254.341" y2="254.341"/><linearGradient id="K" gradientUnits="userSpaceOnUse" x1=".149" x2="1440.17" xlink:href="#a" y1="245.996" y2="245.996"/><linearGradient id="L" gradientUnits="userSpaceOnUse" x1=".149" x2="1440.18" xlink:href="#a" y1="237.596" y2="237.596"/><linearGradient id="M" gradientUnits="userSpaceOnUse" x1=".149" x2="1440.19" xlink:href="#a" y1="229.229" y2="229.229"/><linearGradient id="N" gradientUnits="userSpaceOnUse" x1=".149" x2="1440.19" xlink:href="#a" y1="220.546" y2="220.546"/><linearGradient id="O" gradientUnits="userSpaceOnUse" x1=".149" x2="1440.18" xlink:href="#a" y1="211.716" y2="211.716"/><linearGradient id="P" gradientUnits="userSpaceOnUse" x1=".149" x2="1440.18" xlink:href="#a" y1="203.044" y2="203.044"/><linearGradient id="Q" gradientUnits="userSpaceOnUse" x1=".149" x2="1440.19" xlink:href="#a" y1="178.281" y2="178.281"/><linearGradient id="R" gradientUnits="userSpaceOnUse" x1=".149" x2="1440.21" xlink:href="#a" y1="150.472" y2="150.472"/><linearGradient id="S" gradientUnits="userSpaceOnUse" x1=".149" x2="1440.22" xlink:href="#a" y1="123.257" y2="123.257"/><linearGradient id="T" gradientUnits="userSpaceOnUse" x1=".149" x2="1440.23" xlink:href="#a" y1="100.575" y2="100.575"/><linearGradient id="U" gradientUnits="userSpaceOnUse" x1=".149" x2="1440.22" xlink:href="#a" y1="86.676" y2="86.676"/><clipPath id="V"><path d="m0 0h1440.1v778h-1440.1z"/></clipPath><mask id="W" height="778" maskUnits="userSpaceOnUse" width="1440" x="0" y="0"><path d="m0 0h1440v778h-1440z" fill="#c4c4c4"/></mask><g clip-path="url(#V)"><g mask="url(#W)" opacity=".3" stroke-miterlimit="10" stroke-width=".5"><path d="m.2 831.2c35.6-29.4 60.1-63.6 78.9-105.9 13.9-31.4 22.699-65.5 39.199-95.7 33.4-61.3 88-12.1 135.4 2.9 54.7 17.3 80.5-21.6 123.4-44.9 21-11.4 40.9-12.2 56.8 7 28.5 34.4 42 83.2 56.8 124.6 17.7 49.5 33.9 99.6 53.6 148.4 12.6 31 27.9 76.8 57.2 96.6 25.5 17.2 48.3-4.9 64.8-23.8 32.3-37 55.6-82.1 79.4-124.7 23.7-42.4 46.5-86 74.7-125.7 13.7-19.3 38.8-57.2 67.2-49.2 33.9 9.5 56 56.4 76 82.4 26 33.7 58.901 60.7 102.001 37.9 48.1-25.4 77.2-75.2 120.7-106.4 32-23 56.1-7.6 79.6 19.8 33.2 38.7 55.2 87.1 80.7 130.9 21.6 37 47.3 88.1 93.6 95.9" stroke="url(#b)"/><path d="m.2 815.7c34.5-26.6 58.5-58 77.3-97.3 14.3-29.9 23.999-62.4 40.899-91 34.5-58.3 84.3-21.6 132.8-6 24.6 7.9 48.2 7.1 71-5.5 19.9-11 35.6-28.4 55.8-38.8 22.6-11.6 42.1-10 58.4 10.2 26.1 32.1 39.6 76.4 53.6 114.6 17.9 48.9 34 98.5 53.6 146.8 12.8 31.5 28.1 76.8 57.4 97.3 25.7 18 48.8-4.7 65.7-23.8 29.8-33.5 52-74 74.5-112.5 24.4-41.8 47.6-84.7 75.9-124.2 15.2-21.3 42.9-63.8 74.3-53.2 30.8 10.4 51.8 49.2 71.8 72.5 28.2 32.8 60.201 58.7 104.401 37.9 45.2-21.3 74.9-64.2 114.1-93.7 12.9-9.7 26.5-19.3 43.3-14.6 17.9 5.1 32.6 20.9 44 34.8 30.5 37.1 51.9 81.4 76.3 122.5 22 37.1 48.5 88.1 94.9 96.7" stroke="url(#c)"/><path d="m.2 789.3c30.7-20.6 53.8-45.6 72.1-77.9 16.6-29.2 27.6-62 46.699-89.8 36.1-52.5 83-24.5 131.9-10.6 23.7 6.7 45.7 6.9 67.9-4.7 21.4-11.2 38.1-29.4 59.3-40.8 23.1-12.3 43.1-12.3 60.7 8.1 26.6 30.9 40.5 74.8 54.6 112.4 16.6 44.3 31.6 89 49.6 132.6 13.1 31.9 28.5 74.7 57.8 95.7 25.2 18.1 49.5-3.5 67-22.3 30.1-32.4 53-71.7 76.1-109.1 23-37.2 45.2-75.3 71.5-110.3 15-20 41.1-58.2 70.7-55.2 32.2 3.3 59.3 48.8 79.8 70.1 27.2 28.1 59.401 52.5 100.101 37.7 46.1-16.7 77.3-59.1 116.2-86.9 32.4-23.2 58.3-12 83.5 15.8 34 37.6 56.7 85 83.5 127.6 22 35 47.2 79 91 86.9" stroke="url(#d)"/><path d="m.2 757.1c38.9-20.9 63.6-50.3 85.6-88 15.499-26.7 30.099-59.7 58.199-75.6 30.9-17.5 62.8-4.9 94.1 4.2 34.1 10 62.1 10.1 92.4-10.1 23.1-15.4 47.8-43.7 77.6-45 39.6-1.7 59.4 54 72.3 83.3 24.1 55 42.1 112.4 66.3 167.3 12.5 28.4 34.8 89 73.5 90.3 37.7 1.3 71.3-52.7 90-78.4 33.6-46.3 62.6-95.9 97.6-141.3 18.9-24.6 53.2-73.1 90.3-57.2 43.1 18.5 66.9 68.2 108.201 90.9 51.2 28.1 98-7.5 137.4-39.2 32.9-26.5 66.3-61.4 107.5-29.8 39.8 30.6 64.2 81.8 90.7 123.1 23.9 37.3 51 86.2 98.5 93.8" stroke="url(#e)"/><path d="m.2 723.9c36.6-14 61.3-36.6 84-68 17.499-24.2 33.899-51.7 60.999-66.3 32.1-17.3 62.9-8.6 96.1-.6 36.3 8.6 63.4 5 94-16.8 22.6-16.1 51-46.7 81.7-44.1 33.5 2.8 51.5 46 63.8 71.9 24.6 51.6 42.2 106.2 66 158.2 13.3 29 34.7 83.9 73.4 85.3 37.7 1.4 71-46.3 91.2-71.9 33.9-42.8 63.3-89.2 98.8-130.7 17.8-20.8 47.7-57.8 80-52 19.3 3.4 36.3 20.5 50.3 32.7 19 16.6 37.3 34.7 58.9 48.1 50.101 31 94.801 10.8 138.801-20.7 33.2-23.8 68.8-61 110.4-33.5 40.4 26.7 65.5 76.9 91.8 115.9 24.6 36.6 52.3 83.5 99.7 90" stroke="url(#f)"/><path d="m.2 694.7c34.2-7.6 58.5-23.6 82.1-49 19.899-21.3 37.399-44.7 63.199-59.4 32.8-18.7 61.5-14.3 96.9-7.2 31.7 6.3 57.2 5 84.6-13 25.8-16.9 52.2-47.5 84.5-51 39.5-4.2 60.4 42.8 74.7 72.2 23.8 48.8 41 100.6 65.2 149.3 13.5 27.1 33.4 70.6 68.8 71.6 34.9.9 64.7-34.9 85.6-58.4 34.6-39 64.4-82 99.4-120.7 21.7-24 55.9-63.6 92.8-52.3 40.3 12.3 70.3 52.7 106.901 72.7 47 25.7 87.6 14.9 131.3-12.6 33.9-21.3 70.3-57.3 111.7-32.7 40.3 24 66 72.5 92.2 109.6 25.2 35.8 53.3 80.3 100.2 86" stroke="url(#g)"/><path d="m.2 674.5c66.4-5.8 94.6-57.5 146.099-91.4 33.5-22.1 59.2-21 97.4-14.1 32.4 5.8 57.3 3.5 85.2-15.1 25.6-17 54.2-48.8 87.1-50.2 39.1-1.6 60.6 46.6 75 75.9 20.4 41.5 36.1 85.2 56.4 126.8 14 28.7 35 76.8 72.7 78.4 36.6 1.5 70.2-38.2 92.3-62.2 30.1-32.6 57.2-67.9 87.6-100.3 22.3-23.9 57-63.7 94.1-58.4 42.1 6 79.1 48.7 116.001 67.4 43.1 21.8 82.4 16.5 123.6-5.9 34.8-18.9 71.8-53.8 112.9-31.1 40.3 22.3 66.5 69.5 92.8 105.5 25.9 35.4 54.1 78.2 100.8 84.2" stroke="url(#h)"/><path d="m.2 656.2c64.6-3.2 96.1-48.4 146.299-81.5 33.2-21.9 58.3-22.6 96.7-16.9 31.9 4.8 56.7 2.4 84.7-14.8 26-16 55.4-45.8 87.8-46.6 38.2-1 60.4 43.8 75.4 72.5 20.3 38.9 36.2 80 56.4 119 14.3 27.7 36.1 73.4 72.6 75.1 35.4 1.6 69.9-36.3 92.2-58.8 30-30.3 57.3-63.3 87.5-93.5 23-23.1 57.8-60.4 94.2-56.7 41.5 4.1 80.3 44 116.901 61.5 42.9 20.5 81.7 17.4 123.3-3.7 35.2-17.8 71.9-50.7 112.4-28.4 40 22 66.3 68.1 92.7 103.6 26.1 35.1 54.4 76.7 100.8 83" stroke="url(#i)"/><path d="m.2 635.1c29.9-2.1 55.4-9.6 80.4-26.3 22.299-14.9 42.299-32.7 65.599-46.1 32.2-18.5 58.3-20.3 94.7-16.3 30.4 3.3 55.6 1.9 83-12.5 26.9-14.1 55.3-39 86.8-41.3 36.7-2.6 59.5 33.1 76.1 60.7 23.6 39.2 41.2 81.8 64.9 121 14.8 24.5 36.2 59.4 68.5 60.4 32.2 1 63.1-27.8 85.3-47.7 34.2-30.7 64.8-65.3 99-96 23.7-21.3 58-53.1 93-47.8 39.1 5.9 74.6 39.1 109.801 55.3 46.2 21.2 85.4 18.7 130.6-4.1 35.1-17.7 70.7-47.3 110.4-24.5 39.3 22.6 65.4 67.5 91.9 102.7 26.1 34.6 54.2 74.9 100 81.3" stroke="url(#j)"/><path d="m.2 607.7c29.3-1.8 55.5-7.9 81.4-22 22.199-12 42.799-26.6 65.999-37 31.8-14.3 59.4-15.7 93.7-13.1 29 2.2 54.3.4 81.2-11.5 27.4-12.1 55.4-31.9 86.1-33.8 35-2.2 58.1 25.2 76.7 51.4 23.8 33.5 42 70.6 65.9 104 16.5 23.1 38.2 50.4 69.1 51.1 31.6.7 61.7-22.6 85.3-41 34.1-26.6 65-57 99-83.6 25.1-19.6 58.9-45.9 93-40.9 39.1 5.7 74.6 36.5 110.401 51.7 46.3 19.7 85.7 16.8 130.6-5.3 35.1-17.3 70.7-45.8 110.1-23.7 39.1 22 65.2 66.1 91.7 100.7 26.2 34.2 54.4 73.6 99.9 79.7" stroke="url(#k)"/><path d="m.2 578.2c28.8-1.4 55.6-6 82.4-16.9 22.199-9 43.399-19.9 66.399-27.2 57-18 115.8.3 172-19.6 27.8-9.8 55.4-24.2 85.4-25.9 33.1-1.8 56.3 16.8 77.3 40.6 36.3 41.2 72.8 125.3 136.6 126 31.2.3 60-16.8 85.3-33.2 33.9-22.1 65.1-48 99-70 26.6-17.3 59.7-37.7 93-33 39.1 5.5 74.7 33.9 110.901 48.1 46.4 18.1 85.9 14.8 130.6-6.6 35-16.8 70.8-44.4 109.9-23 38.9 21.3 65 64.4 91.5 98.3 26.3 33.7 54.6 71.9 99.7 77.7" stroke="url(#l)"/><path d="m.2 550.7c52.9-2.3 98.8-20.7 150.099-30.6 56.4-10.9 113.6-.7 169.4-15.2 28.1-7.3 55.5-17 84.8-18.3 31.3-1.4 54.7 10.2 77.8 30.8 41.1 36.5 76.6 98.9 138 98.9 67.8.1 127.3-53.3 184.3-83.6 27.9-14.8 60.5-30.2 93.1-25.8 39.1 5.4 74.8 31.5 111.501 44.6 46.4 16.6 86.1 13 130.6-7.7 34.9-16.2 70.9-42.8 109.6-22.1 74.3 39.6 100.7 161 190.9 171.8" stroke="url(#m)"/><path d="m.2 529.1c51.3-2.9 100.199-16.6 150.999-21.4 56-5.4 111.7-2.9 167.4-13 57.5-10.5 111.5-22.7 162.7 12.9 44.3 30.9 80.4 79.2 139 79.2 66.3-.1 125.7-43.4 184.3-69.1 28.6-12.6 61.2-25.3 93.1-21.2 39.1 5.1 75 29.3 112.001 41.5 46.4 15.2 86.2 11.4 130.6-8.4 34.9-15.6 71-40.9 109.3-20.8 74.2 38.9 101 158.2 190.7 168.7" stroke="url(#n)"/><path d="m.2 517.5c50.8-4.3 100.499-17 151.399-19.6 56.2-2.8 110.5-6.9 166.3-14.5 57.4-7.8 111.6-15.2 163 16.7 43.9 27.3 84 71.8 139.3 72.1 64.2.3 126.5-40.9 184.4-63.8 28.5-11.3 61.9-24.3 93.2-20.5 38.9 4.8 75.2 27.8 112.401 39 46.2 14 86.1 10.2 130.4-8.6 35.2-14.9 71.1-38.6 109.1-18.7 74.1 38.9 101.3 155.5 190.5 167" stroke="url(#o)"/><path d="m.2 512.4c52-1.1 99.999-18.2 151.299-22.2 30.4-2.4 60.6-1.2 90.9-5.7 25.2-3.7 50-9.3 75-13.9 57-10.6 110.7-17.2 162.9 12.6 44.4 25.4 85.5 66.6 139.9 66.7 63.5.1 126.2-35.4 185.5-54.3 29.3-9.3 62.7-19.6 93.7-14.1 38.7 6.9 74.4 26.6 112.301 36.7 45.7 12.2 85.8 8.3 129.6-9.1 35.6-14.1 71.3-36.2 109.3-17.3 73.4 36.5 102.6 144.2 189.6 155.7" stroke="url(#p)"/><path d="m.2 509.1c29 1.1 56-1.7 83.9-9.8 22.799-6.6 44.899-14.1 68.699-16.7 30.8-3.3 60.8-2.5 91.4-9.2 25.1-5.6 49.7-13.3 74.6-19.9 57.2-15 109.4-20.7 163.5 7 44.9 23 85.2 55.9 137.9 56.8 61.8 1.1 122.6-23.7 182.4-36.2 30.7-6.4 63.9-12.2 95.1-5.9 41.1 8.4 79.4 27.4 120.501 36.4 42.3 9.2 81.4 5.1 121.7-9.5 35.8-13 72.7-34.9 111.2-19.2 73.4 29.8 105 128.3 189.2 136.2" stroke="url(#q)"/><path d="m.2 506.3c29.3 2.8 55.6.2 83.3-9.7 22.999-8.2 44.799-17.9 69.199-21.4 30.9-4.5 60.5-3.7 90.9-12.4 25-7.2 49-17 73.6-25.4 57.2-19.5 107.6-24.4 163.4 2.1 45.5 21.6 87.3 52.4 139.6 53.9 61.7 1.8 123.5-17.6 184.5-25 31.6-3.8 64.6-6.3 95.8 1.6 40.6 10.4 79.2 26.7 120.601 34 42 7.4 81 3.5 121.1-10.1 35.9-12.2 72.7-32.2 111.3-19 71.6 24.6 106.4 112.3 186.8 117.2" stroke="url(#r)"/><path d="m.2 503.7c29.7 4.6 55.1 2 82.7-9.6 23.099-9.8 44.699-21.7 69.699-26.3 30.9-5.6 60.3-4.8 90.5-15.5 24.8-8.8 48.3-20.6 72.6-30.7 56.9-23.7 105.9-28 163.3-3.2 46.3 20 89.3 48.1 141.2 50.1 62.1 2.4 124.5-11.3 186.5-13.3 32.5-1.1 65.3-.1 96.6 9.4 40 12.1 79.1 26.1 120.801 31.7 41.6 5.6 80.6 2 120.5-10.7 36.1-11.4 72.8-29.6 111.3-18.6 69.5 19.7 107.8 96.6 184.4 99.1" stroke="url(#s)"/><path d="m.2 500.2c29.6 6.6 54.3 4.2 81.6-8.9 23.099-11 44.099-25.1 69.499-30.7 30.5-6.8 59.7-5.3 89.5-17.2 24.6-9.8 47.6-23.1 71.3-34.7 55.1-26.9 103.7-32.7 162.1-12.4 48.7 16.9 93.4 40.9 146 42.7 64.4 2.2 128.8-3.4 193.1 1.6 72.7 5.6 137.2 40.2 209.601 47.4 43.8 4.3 84.5.9 126.7-11.7 35.9-10.7 71.8-26 109.7-16.3 66.8 17.1 108.2 82.8 180.9 84.3" stroke="url(#t)"/><path d="m.2 494.3c29.6 8.9 53.6 6.9 81-7.3 23.199-12.1 44.099-27.8 69.999-34.2 30.5-7.5 59.7-5 89.5-17.8 24.6-10.5 47.3-24.9 70.8-37.5 54.1-28.9 103.2-33.4 162-16.6 49.1 14 94.9 33.8 146.8 35.1 64.9 1.6 130 1.7 194.4 11.4 72.3 10.9 136.3 48 210.001 51.8 43.3 2.2 84-.7 125.9-12.1 36.3-9.9 71.9-23.7 109.9-14.4 65.4 16 109.6 73.7 179.8 76.7" stroke="url(#u)"/><path d="m.2 484.9c29.5 8 53.7 6 81-7.5 23.299-11.5 44.299-26.4 69.999-32.5 30.6-7.3 59.7-4.6 89.5-17.6 24.6-10.7 47.2-25.5 70.7-38.4 53.6-29.5 103.4-33.7 162-16.9 49.3 14.1 94.7 33.6 146.7 35 65.8 1.8 132 1.7 197.3 10.9 72.1 10.2 135.9 45.6 209.401 49.1 42.1 2 82.2.1 123.4-9.6 36.8-8.7 72.4-21.3 110.3-11.7 64.4 16.3 111.2 68.1 179.7 73.5" stroke="url(#v)"/><path d="m.2 471c29 6.3 53.8 4.5 81.2-7 23.299-9.8 44.799-22.4 69.899-27.5 31-6.4 59.7-4.2 89.5-17.7 24.7-11.1 47.2-26.4 70.7-39.8 53.4-30.5 103.4-35.3 162-16.9 49.3 15.5 94.1 36.7 146.7 38.3 69.1 2.1 138.4-1.7 207.3 4.5 71.6 6.4 136.1 38.9 208.001 44.9 39.6 3.3 77.6 3.1 116.8-4 36.3-6.6 71.4-16.9 108.3-8.5 63.3 14.3 113.4 58.5 179.7 63.9" stroke="url(#w)"/><path d="m.2 453.5c28.6 5 54.2 4 81.9-5 23.499-7.6 45.799-17.4 70.499-21.1 32.1-4.8 60-3.8 90.2-18.4 24.8-12 47.4-28.1 71.2-42.1 54.2-31.9 104.3-35.2 163.1-13.6 47.7 17.4 91.3 40.9 143.2 42.3 72.7 2 145.5-8.5 218.3-7.8 36.8.4 72.4 3.3 107.5 14.8 35.2 11.6 70.801 20.9 107.501 26.3 33.7 5 66.8 7.2 100.7 4 35.1-3.4 69.6-10.6 104.9-4.9 62.7 10 116.7 44.9 181.1 48.3" stroke="url(#x)"/><path d="m.2 434c54.3 7.8 99.4-10.9 152.399-15.7 32.7-3 60-3 90.1-18.4 24.9-12.7 47.4-29.5 71.2-44.2 25.1-15.5 52.3-29.5 82.3-30.8 27.9-1.2 55.4 7.7 80.8 18.3 46.4 19.4 91.2 48.8 143.2 48.9 79.8.1 159.8-18.9 239.4-24.3 38.1-2.6 79.4-5.6 116.4 5.9 32.301 10 63.801 21.9 96.601 30.4 63 16.3 122.7 8.9 186.5 13.9 61.5 4.9 118.9 28 181.1 28.2" stroke="url(#y)"/><path d="m.2 416.5c52.1 5.5 100.699-4.9 152.399-7 33.1-1.3 60.1-2.5 90.1-18.4 25-13.3 47.4-30.7 71.2-46 24.8-16 52.1-30.9 82.3-32.3 28.1-1.2 55.7 8.9 80.8 20.5 45.7 21.1 90.8 54.4 143.2 54.1 40.9-.2 82.8-9.8 122.9-16.3 44.2-7.2 88.3-14.6 132.8-19.8 39.1-4.6 84.4-11.9 123-.7 30.001 8.7 59.001 21.8 88.301 32.4 57.2 20.6 111.4 24.8 171.8 26.1 60.7 1.3 120.2 13.8 181.1 12.3" stroke="url(#z)"/><path d="m.2 402.6c51 2.6 101.499-1 152.399-1.5 33.2-.3 60.3-2.3 90.1-18.6 25-13.7 47.4-31.7 71.2-47.4 24.7-16.4 52-31.8 82.3-33.2 28.3-1.3 55.8 9.3 80.8 21.6 45.6 22.5 90 57.5 143.2 57.5 42 0 85.2-10.7 126.2-18.2 46.3-8.5 92.6-17.4 139.2-24.1 40.1-5.8 86.2-14.6 126.301-4.5 28.9 7.3 56.5 20.1 83.9 31.8 54.6 23.3 103.7 35.1 163.4 34.9 60.4-.2 120.7 4 181.1 2.6" stroke="url(#A)"/><path d="m.2 393.2c50.8-.4 101.599.5 152.399.3 33-.1 60.6-2.5 90.1-18.8 25.1-13.9 47.4-32.1 71.2-48 54.4-36.5 104.2-41.4 163.1-11.8 46.3 23.3 89.1 57.5 143.2 58.3 42.2.6 85.1-9.6 126.2-17.4 47.2-9 94.3-18.8 141.7-26.2 41.1-6.5 85.1-14.1 126.501-5.7 29 5.9 56.2 17.3 83.1 29.5 23.2 10.5 46 21.9 70.3 29.8 30.1 9.7 59.7 10.3 91 10.4 60.4.2 120.7-1 181.1-.4" stroke="url(#B)"/><path d="m.2 381c51-1.1 101.499 4.4 152.399 4.6 32.9.1 60.9-2.8 90.1-19.1 25.1-14 47.4-32.4 71.2-48.5 54.2-36.8 104.5-42.1 163.1-11.6 46.6 24.3 88.3 58.8 143.2 60.2 42.4 1.1 85.2-9.7 126.3-18.5 47.4-10.2 94.6-21.5 142.3-30.3 41.4-7.7 84.7-15.9 126.701-8.6 29.5 5.1 56.2 16.7 82.7 30.4 23 11.9 45.4 25.3 69.8 34.4 29.8 11.2 59.6 11.8 91 11.7 60.5-.2 120.6-7.5 181.1-5.9" stroke="url(#C)"/><path d="m.2 364.5c51.5-.7 101.199 11.1 152.399 12.7 32.9 1.1 61.1-2.5 90.1-19 25.1-14.2 47.4-32.9 71.2-49.3 54.4-37.5 104.6-42.9 163.1-10.6 46.2 25.5 87.8 62.8 143.2 64.1 42.6 1 85.9-12.1 126.8-22.6 47.8-12.3 95.2-25.9 143.2-37.1 41-9.6 85-20.8 127.301-14.4 30 4.6 56.3 17.8 81.9 33.7 22.7 14.1 44.6 29.9 68.9 41.2 29.3 13.7 58.9 15.2 90.8 14.1 60.9-2.2 119.9-17.5 181.1-16.3" stroke="url(#D)"/><path d="m.2 345.6c52.6.2 100.499 19.2 152.399 23 68 5 108.8-32.1 161.3-68.9 24.5-17.2 51.6-33.4 82.3-34.8 29.3-1.4 56.2 10.9 80.8 25.5 45.3 26.8 87.5 68.2 143.2 68.9 42.9.5 87.1-15.8 127.5-28.2 48.2-14.9 95.9-31.2 144.3-45.3 40.2-11.7 85.7-27.2 128.201-21.6 30.5 4 56.6 20.3 80.8 38.2 22.4 16.6 43.5 35.3 67.7 49.2 28.7 16.5 57.7 19.7 90.3 17 61.6-5.1 118.7-29.4 181.1-29.6" stroke="url(#E)"/><path d="m.2 326.2c54.1 1.2 99.6 27.5 152.399 33.6 67.6 7.8 110-32.9 161.3-69.5 24.3-17.4 51.6-34.2 82.3-35.5 29.5-1.3 56.6 12 80.8 27.5 44 28.1 87.5 73.7 143.2 73.7 43.2 0 88.4-19.8 128.4-34.2 48.6-17.5 96.7-36.7 145.6-53.7 39.3-13.7 86.5-33.8 129.101-29.1 31 3.4 56.9 23.2 79.6 43 48 41.9 86.6 86.6 156.2 77.4 62.5-8.3 117.1-41.6 181.1-43.4" stroke="url(#F)"/><path d="m.2 306c56.1 2.5 98.5 36.2 152.399 44.9 67 10.9 111.2-33.7 161.3-70.1 24.1-17.6 51.5-35 82.3-36.3 29.7-1.3 56.9 13 80.8 29.2 43 29 87.4 78.7 143.2 78 43.7-.5 90-23.8 129.5-40 49.2-20.2 97.7-42.1 147-62 38.4-15.5 87.5-40.5 130.301-36.4 31.4 2.9 57.1 26.7 78.2 48 44.2 44.9 82.8 102.2 153.9 88.8 63.6-12 115-54.5 181.1-58.2" stroke="url(#G)"/><path d="m.2 291.6c30.3 1.3 55.7 9.1 82.5 22.9 22.699 11.6 44.499 23.8 69.899 28.4 66.7 12 111.9-34.4 161.3-70.8 24.1-17.8 51.4-35.3 82.3-36.6 29.9-1.3 57 13.4 80.8 30 42.9 30 86.7 81.1 143.2 80.6 44.2-.4 90.8-25.2 130.2-42.5 49.6-21.8 98.4-45.6 148.1-67.4 38.5-16.8 87.7-43.8 131.201-40.7 32 2.2 57 27.7 77.1 50.2 42 47 79.6 111.7 152.2 96.5 64.6-13.5 113.2-62.8 181.1-66.5" stroke="url(#H)"/><path d="m.2 283.3c30.3 1.2 55.7 9.1 82.5 23 22.699 11.8 44.399 24.1 69.899 28.7 66.5 11.9 111.9-34.5 161.3-70.6 24.2-17.7 51.4-35.1 82.3-36.6 30.2-1.5 57.7 13 82 29.7 42.6 29.3 86.6 81.3 142.1 82.2 44.2.8 91.1-24.9 130.1-42.7 49.6-22.6 98.3-47.4 147.9-69.9 38.7-17.6 87-44.2 131.101-41.2 32.5 2.2 57 27.3 77.2 50.4 41.7 47.5 79.2 113.8 152.5 98.7 65.8-13.5 111.2-70.1 181.1-71.5" stroke="url(#I)"/><path d="m.2 275.3c30.3 1.2 55.7 9.1 82.5 23 22.699 11.8 44.399 24.1 69.899 28.7 66.2 11.9 111.8-33.9 161.3-69.7 24.2-17.6 51.5-34.6 82.3-36.1 30.6-1.5 58.7 13.1 83.3 29.8 41.7 28.2 87.1 83.3 140.7 85.1 43.9 1.5 91.6-26.6 129.6-45.1 49.5-24.1 97.8-50.4 147.4-74.4 38.3-18.5 86.4-46.6 130.701-43.6 33 2.2 57.6 28.4 77.8 51.9 40.5 47.3 80.1 119.4 153.5 101.5 67.3-16.4 108.2-83.1 181.1-84.9" stroke="url(#J)"/><path d="m.2 267.3c30.3 1.2 55.7 9.1 82.5 23 22.699 11.8 44.399 24.1 69.899 28.7 66 11.8 111.7-33.1 161.3-68.4 24.3-17.3 51.6-34.1 82.3-35.5 31.1-1.4 59.7 13.6 84.7 30.5 23.2 15.7 44.4 34.1 66.6 51.1 20 15.3 46.6 36.6 72.8 37.7 43.5 1.8 92.3-29.7 129-49 49.3-26 97.3-54.3 146.7-80.1 37.4-19.6 85.9-50.4 130.101-47.4 33.5 2.3 58.4 30.3 78.4 54.3 38.8 46.7 81.6 127.6 154.7 105 68.9-21.3 104.6-99.5 181.1-103.6" stroke="url(#K)"/><path d="m.2 259.3c30.3 1.2 55.7 9.1 82.5 23 22.699 11.8 44.399 24.1 69.899 28.7 65.7 11.8 111.5-32.2 161.3-67 24.4-17 51.7-33.5 82.3-34.7 31.5-1.3 60.7 14.3 86 31.4 23.5 15.9 44.9 34.6 67.1 52.3 18.9 15.1 45.6 39.6 70.9 40.8 43.1 2 93.1-33.4 128.5-53.6 49.1-28.1 96.9-58.5 146-86.5 36.3-20.6 85.5-54.8 129.601-51.8 34 2.3 59.3 32.6 79 57.1 36.9 45.9 83.3 136.6 155.7 108.9 70.4-26.9 101-116.6 181.1-123.9" stroke="url(#L)"/><path d="m.2 251.3c30.3 1.2 55.7 9.1 82.5 23 22.699 11.8 44.399 24.1 69.899 28.7 65.4 11.7 111.3-31.5 161.3-65.8 24.4-16.8 51.8-33 82.3-34.1 31.9-1.1 61.7 15 87.4 32.4 23.8 16.1 45.6 35.1 67.6 53.5 17.9 15 44.6 42.7 69.1 44 18.3 1 38.5-9.2 54.4-16.7 25.5-12 49.8-26.6 73.8-41.4 49-30.2 96.6-62.7 145.6-92.8 35.3-21.6 85.3-59.2 129.401-56.2 34.3 2.4 60 34.9 79.3 59.9 35.1 45.2 84.4 144.9 156.3 112.9 71.6-31.8 97.7-132.1 181.1-142" stroke="url(#M)"/><path d="m.2 243.3c30.3 1.2 55.7 9.1 82.5 23 22.699 11.8 44.399 24.1 69.899 28.7 65.1 11.7 111.2-30.9 161.3-64.8 24.5-16.5 51.9-32.5 82.3-33.6 32.4-1.1 62.7 15.5 88.8 33 24 16.3 46 35.4 68 54.4 17.2 14.9 43.3 45.3 67.2 46.8 18.3 1.1 39-10.2 54.6-18 25.6-12.8 49.9-28.4 73.9-44 49.1-32.1 96.5-66.5 145.7-98.5 34.6-22.5 85.3-63.1 129.601-59.9 34.6 2.5 60.2 37.1 79.1 62.3 33.4 44.9 84.4 151.5 156 117.4 72.4-34.5 95.2-144.2 181.1-154.2" stroke="url(#N)"/><path d="m.2 235.3c30.1 1.2 55.4 8.9 82 22.7 22.399 11.6 43.899 24 69.099 28.7 64.2 12.1 110.5-28.7 160.1-62.3 24.3-16.5 51.3-32.7 81.4-34.8 32.1-2.3 62.2 12.8 88.3 29.8 27.6 18 52.2 39.9 76.9 61.5 17.1 15 39.1 40.7 62.4 43.1 39.1 4 87.4-35 117.6-54.9 55.5-36.7 108.4-77.2 163.9-113.9 33-21.9 82.8-61.7 125.701-55.3 32.1 4.8 55.3 36.1 73.2 60.2 33.6 44.9 86.6 159.6 159.7 121.8 71.5-37 91.9-157.2 179.7-164.8" stroke="url(#O)"/><path d="m.2 227.3c30.1 1.2 55.4 8.9 82 22.7 22.399 11.6 43.899 24 69.099 28.7 64.2 12.1 110.5-28.7 160.1-62.3 24.3-16.5 51.3-32.7 81.4-34.8 31.9-2.3 61.4 12.8 87.1 30.2 27.4 18.5 51.7 41.1 76.5 62.9 17.5 15.5 40.2 40.3 64.2 43 40 4.6 87.7-33.8 118.3-54.4 55.2-37.2 107.4-78.8 162.6-116.2 33.1-22.4 82.8-62.5 126.201-55.1 32 5.5 55.1 36.7 73.2 60.9 32.4 43.3 88.6 161 159.8 120.6 38.4-21.8 61.6-69.4 85.1-104.8 23.2-34.9 49-77.5 94.6-80.7" stroke="url(#P)"/><path d="m.2 219.3c30.1 1.2 55.4 8.9 82 22.7 22.399 11.6 43.899 24 69.099 28.7 64.2 12.1 110.5-28.7 160.1-62.3 24.3-16.5 51.3-32.7 81.4-34.8 31.8-2.2 60.7 13.1 85.9 31 27.2 19.3 51.2 42.6 76 64.8 18 16.1 41.1 40.2 65.9 43.4 40.8 5.2 88-32.9 119-54.3 54.9-38 106.5-80.7 161.2-118.9 33.1-23.1 82.8-63.6 126.701-55.2 31.9 6.1 54.9 37.3 73.1 61.6 31 41.3 91.7 164.2 159.8 117.4 40.1-27.5 62-82.7 85.1-123.4 21.6-38 46.4-90.4 94.6-96.3" stroke="url(#Q)"/><path d="m.2 211.3c29.9 1.2 55 8.8 81.5 22.4 22.199 11.5 43.499 23.8 68.399 28.7 68.2 13.5 115.9-32.5 168.8-67 53.7-35 101.9-38.7 154.9-.7 27.3 19.6 50.9 43.5 75.6 66.1 18.9 17.3 44.4 44 70.9 47.6 44.6 6 95.6-36.8 128.7-60.7 53.9-39 104.3-82.5 158.7-120.8 30.1-21.2 72.7-55 112.701-51.6 34 2.9 59.2 35.4 78.1 60.3 30.7 40.5 97.7 172.8 163.6 115.1 40.9-35.9 61.2-97.6 84.3-145.2 20.1-41.3 43.6-103.5 93.9-113.6" stroke="url(#R)"/><path d="m.2 203.3c29.9 1.2 55 8.8 81.5 22.4 22.199 11.5 43.499 23.8 68.399 28.7 68.2 13.5 115.9-32.5 168.8-67 53.5-34.9 101.6-39.1 153.7.1 27 20.3 50.3 45.1 75 68.1 19.5 18.2 45.1 44 72.7 48.1 45.4 6.8 96.1-36.1 129.5-60.9 53.3-39.8 103.1-84.4 157.2-123.6 30-21.7 72.9-56.2 113.301-51.9 33.9 3.6 59 36.2 78 61.2 30.2 39.8 100.7 175.4 163.7 110.9 42.1-43.1 61.2-112 84.3-166 19.2-44.8 41.3-116.9 93.9-131.3" stroke="url(#S)"/><path d="m.2 195.3c29.6 1.1 54.7 8.6 81 22.2 21.999 11.3 43.099 23.7 67.599 28.8 67.6 14 115.2-30.5 167.5-65.1 23.9-15.8 51-31.1 80.4-31.7 30.9-.6 57.7 16.6 80.6 35.6 26 21.5 48.6 46.7 73.4 69.6 19.4 17.9 43.1 39.2 70.1 43.5 42.5 6.7 87.3-29.1 119-52.5 53.4-39.7 102.2-85 154.8-125.4 33-25.4 83.2-69.1 129.001-60.4 33.4 6.3 57.9 39.3 76.9 64.6 30.2 40.3 102.4 174.3 162.8 103.4 42.3-49.6 60.4-123.2 83.6-182.7 18.2-46.7 39.2-126.5 93.3-142.8" stroke="url(#T)"/><path d="m.2 187.3c29.6 1.1 54.7 8.6 81 22.2 21.999 11.3 43.099 23.7 67.599 28.8 67.6 14 115.2-30.5 167.5-65.1 23.9-15.8 51-31.1 80.4-31.7 30.8-.7 56.8 16.5 79.4 35.8 43 36.8 85 104 144.8 114 43.4 7.2 87.4-27.6 119.7-51.9 53.1-40 101.2-86.1 153.5-127.2 33-26 83.2-70 129.401-60.2 33.3 7.1 57.7 39.9 76.8 65.4 29.5 39.2 103.7 173.9 162.9 103.3 43.4-51.8 60.7-129.6 83.6-191.6 17.1-46.3 37.9-133.7 93.3-147.7" stroke="url(#U)"/></g></g></svg>